# xmcd
#
# Track frame offsets: 
#        177
#        16445
#        30323
#        45806
#        61252
#        79342
#        98121
#        114885
#        131978
#        151263
#        166566
#        186693
#        201578
#
# Disc length: 2856 seconds
#
# Revision: 0
# Processed by: cddbd v1.5.2PL0 Copyright (c) Steve Scherf et al.
# Submitted via: ExactAudioCopy v1.0b4
#
DISCID=a20b260d
DTITLE=Zeca Pagodinho - Samba Bookl CD 02
DYEAR=2014
DGENRE=Pagode
TTITLE0=01. Judia De Mim – Djavan
TTITLE1=02. Vou Botar Teu Nome Na Macumba – Mumuzinho
TTITLE2=03. Alto Lá – Maria Rita
TTITLE3=04. Talarico, Ladrão De Mulher – Péricles
TTITLE4=05. Ter Compaixão – Alcione
TTITLE5=06. Bagaço Da Laranja – Emicida
TTITLE6=07. Lente De Contato – Diogo Nogueira E Hamiltion De Holanda
TTITLE7=08. Brincadeira Tem Hora – Frejat
TTITLE8=09. Termina Aqui – Jorge Aragão
TTITLE9=10. SPC – Dudu Nobre
TTITLE10=11. Faixa Amarela – Martinho Da Vila
TTITLE11=12. Falsa Alegria – Monarco E Velha Guarda Da Portela
TTITLE12=13. Camarão Que Dorme A Onda Leva – Zeca Pagodinho e Convidad
TTITLE12=os
EXTD=
EXTT0=
EXTT1=
EXTT2=
EXTT3=
EXTT4=
EXTT5=
EXTT6=
EXTT7=
EXTT8=
EXTT9=
EXTT10=
EXTT11=
EXTT12=
PLAYORDER=
